<?xml version="1.0" encoding="UTF-8"?>
<svg id="Layer_1" xmlns="http://www.w3.org/2000/svg" version="1.1" viewBox="0 0 512 512">
  <!-- Generator: Adobe Illustrator 30.2.1, SVG Export Plug-In . SVG Version: 2.1.1 Build 1)  -->
  <defs>
    <style>
      .st0 {
        fill: #7f2a0c;
      }

      .st1 {
        fill: #fff;
      }
    </style>
  </defs>
  <rect class="st0" width="512" height="512" rx="96" ry="96"/>
  <g>
    <path class="st1" d="M228.5,375.5H98c-5.9,0-10.7-4.8-10.7-10.7V106.8c0-5.9,4.8-10.7,10.7-10.7h228.1c5.9,0,10.7,4.8,10.7,10.7v136.1c0,7.7,6.3,14,14,14s14-6.3,14-14v-102.2h26.3c5.9,0,10.7,4.8,10.7,10.7v95.2c0,7.7,6.3,14,14,14s14-6.3,14-14v-95.2c0-21.3-17.4-38.7-38.7-38.7h-26.3v-5.9c0-21.3-17.4-38.7-38.7-38.7H98c-21.3,0-38.7,17.4-38.7,38.7v258.1c0,21.3,17.4,38.7,38.7,38.7h130.6c7.7,0,14-6.3,14-14s-6.3-14-14-14Z"/>
    <path class="st1" d="M296.9,149.6H124.8c-7.7,0-14,6.3-14,14s6.3,14,14,14h172.1c7.7,0,14-6.3,14-14s-6.3-14-14-14Z"/>
    <path class="st1" d="M131.5,221.8c-11.4,0-20.8,9.3-20.8,20.8v56.2c0,11.4,9.3,20.8,20.8,20.8h49.4c11.4,0,20.8-9.3,20.8-20.8v-56.2c0-11.4-9.3-20.8-20.8-20.8h-49.4ZM173.7,291.5h-34.9v-41.7h34.9v41.7Z"/>
    <path class="st1" d="M296.9,221.8h-49.1c-7.7,0-14,6.3-14,14s6.3,14,14,14h49.1c7.7,0,14-6.3,14-14s-6.3-14-14-14Z"/>
    <path class="st1" d="M449.7,403.9c15.1-16.6,24.3-41.3,27.5-73.4,2.3-23,.5-41.4.4-42.2-.7-7.2-6.7-12.6-13.9-12.6h-160.6c-7.7,0-14,6.3-14,14,0,.5,0,6,.8,14.4h-26.1c-10.5,0-18.4,3.3-23.6,9.7-5.1,6.4-6.6,14.8-4.4,25.1,3.7,16.9,12,31.5,24.1,42.2,16.7,14.9,40,22.5,69.4,22.5s1.2,0,1.8-.1c5.2,4.9,10.9,9.1,17,12.5h-45c-7.7,0-14,6.3-14,14s6.3,14,14,14h160.1c7.7,0,14-6.3,14-14s-6.3-14-14-14h-27.5c5.1-3.3,9.7-7.3,14-12ZM450.4,303.6c0,6.6,0,15.2-1.1,24.6-2.6,25.4-9.6,45.1-20.4,56.9-8.7,9.6-19.9,14.2-34.4,14.2-31.7,0-53.6-17-66.7-52.1-6-16.1-8.7-32.5-9.9-43.6h132.4ZM263.2,332.8c0-.2,0-.5-.1-.7.2,0,.5,0,.7,0h30.5c1.7,7.7,4,16,7.1,24.3,2.3,6.3,4.9,12.1,7.8,17.6-25.5-4.5-40.9-18.3-46-41.1Z"/>
  </g>
</svg>